<svg height="80.217" viewBox="0 0 80.788 80.217" width="80.788" xmlns="http://www.w3.org/2000/svg"><path d="m2.119 0c-.398.021-2.219 2.3-2.119 4.091a2.387 2.387 0 0 0 2.472 2.3 2.415 2.415 0 0 0 2.2-2.579c-.101-1.792-2.156-3.833-2.553-3.812z" fill="#1f9aff" transform="translate(48.005 1.163)"/><path d="m0 1.44a2.909 2.909 0 0 0 3.462-1.44 1.786 1.786 0 0 1 -1.688 2.314 1.825 1.825 0 0 1 -1.774-.874z" fill="#1790e2" transform="translate(48.59 4.65)"/><path d="m.947.043a4.283 4.283 0 0 0 -.937 1.557c-.057.155.153.207.277.062a4.341 4.341 0 0 0 .88-1.484.132.132 0 0 0 -.22-.135z" fill="#3fafff" transform="translate(48.59 1.744)"/><path d="m3.5 0c-.491-.059-3.216 2.034-3.478 3.976a2.739 2.739 0 0 0 2.551 2.979 2.886 2.886 0 0 0 3.26-2.331c.251-1.943-1.842-4.563-2.333-4.624z" fill="#1f9aff" transform="translate(62.055 9.882)"/><path d="m0 .94a3.937 3.937 0 0 0 4.683-.94 2.221 2.221 0 0 1 -2.657 2.315 2.281 2.281 0 0 1 -2.026-1.375z" fill="#1790e2" transform="translate(62.64 13.951)"/><path d="m1.5.034a4.873 4.873 0 0 0 -1.478 1.521c-.095.154.137.257.326.134a4.88 4.88 0 0 0 1.387-1.449.157.157 0 0 0 -.235-.206z" fill="#3fafff" transform="translate(63.226 10.463)"/><path d="m2.743 0a5.175 5.175 0 0 0 -2.73 3.351 2.255 2.255 0 0 0 2.081 2.449 2.313 2.313 0 0 0 2.575-1.978 5 5 0 0 0 -1.926-3.822z" fill="#1f9aff" transform="translate(73.178 22.67)"/><path d="m0 .992c.761.726 2.817.427 3.512-.992.019 2.145-1.3 2.375-1.97 2.318a1.875 1.875 0 0 1 -1.542-1.326z" fill="#1790e2" transform="translate(73.763 25.577)"/><path d="m1 .022a3.146 3.146 0 0 0 -.985 1.017c-.067.1.1.168.218.088a3.157 3.157 0 0 0 .924-.969.107.107 0 0 0 -.157-.136z" fill="#3fafff" transform="translate(74.349 23.251)"/><path d="m2.964 0c-.501 0-2.943 2.529-2.964 4.649a2.911 2.911 0 0 0 2.9 2.908 2.914 2.914 0 0 0 2.954-2.857c.011-2.118-2.399-4.69-2.89-4.7z" fill="#1f9aff" transform="translate(74.934 37.202)"/><path d="m0 1.6c1.119.721 3.873.109 4.658-1.6a2.355 2.355 0 0 1 -2.42 2.9 2.39 2.39 0 0 1 -2.238-1.3z" fill="#1790e2" transform="translate(75.519 41.271)"/><path d="m1.459.038a4.678 4.678 0 0 0 -1.441 1.544c-.091.157.194.222.377.092a4.568 4.568 0 0 0 1.349-1.474c.056-.116-.102-.273-.285-.162z" fill="#3fafff" transform="translate(76.105 37.784)"/><path d="m3.034 0c-.502-.01-2.98 2.491-3.034 4.614a2.906 2.906 0 0 0 2.863 2.942 2.911 2.911 0 0 0 2.99-2.816c.054-2.123-2.328-4.729-2.819-4.74z" fill="#1f9aff" transform="translate(71.421 52.897)"/><path d="m0 1.558c1.1.751 3.86.155 4.664-1.558a2.366 2.366 0 0 1 -2.445 2.906 2.419 2.419 0 0 1 -2.219-1.348z" fill="#1790e2" transform="translate(72.007 56.966)"/><path d="m1.462.038a4.633 4.633 0 0 0 -1.444 1.539c-.09.159.181.233.372.093a4.658 4.658 0 0 0 1.355-1.464c.055-.121-.102-.28-.283-.168z" fill="#3fafff" transform="translate(72.592 53.478)"/><path d="m1.744 0a4.557 4.557 0 0 0 -1.736 3.418 2.037 2.037 0 0 0 2.232 1.8 2.015 2.015 0 0 0 1.849-2.173 4.607 4.607 0 0 0 -2.345-3.045z" fill="#1f9aff" transform="translate(62.64 67.429)"/><path d="m0 1.519a2.343 2.343 0 0 0 2.868-1.519c.324 1.763-.768 2.217-1.353 2.306a1.5 1.5 0 0 1 -1.515-.787z" fill="#1790e2" transform="translate(63.811 70.336)"/><path d="m.938.032a2.86 2.86 0 0 0 -.931 1.036c-.048.1.167.129.287.04a2.753 2.753 0 0 0 .871-.988c.035-.08-.107-.169-.227-.088z" fill="#3fafff" transform="translate(63.226 68.592)"/><path d="m2.848 0c-.498.01-2.879 2.6-2.848 4.721a2.9 2.9 0 0 0 2.975 2.835 2.9 2.9 0 0 0 2.879-2.928c-.042-2.116-2.509-4.638-3.006-4.628z" fill="#1f9aff" transform="translate(46.248 72.661)"/><path d="m0 1.673a3.883 3.883 0 0 0 4.645-1.673 2.327 2.327 0 0 1 -2.36 2.9 2.414 2.414 0 0 1 -2.285-1.227z" fill="#1790e2" transform="translate(46.834 76.73)"/><path d="m1.449.042a4.633 4.633 0 0 0 -1.434 1.546c-.082.154.2.217.385.081a4.473 4.473 0 0 0 1.341-1.469c.069-.122-.105-.275-.292-.158z" fill="#3fafff" transform="translate(46.834 73.823)"/><path d="m2.143 0a5.037 5.037 0 0 0 -2.143 3.71 2.3 2.3 0 0 0 2.46 2.1 2.268 2.268 0 0 0 2.22-2.33 5.1 5.1 0 0 0 -2.537-3.48z" fill="#1f9aff" transform="translate(28.686 72.661)"/><path d="m0 1.435a2.9 2.9 0 0 0 3.467-1.435 1.789 1.789 0 0 1 -1.707 2.314 1.8 1.8 0 0 1 -1.76-.879z" fill="#1790e2" transform="translate(29.271 75.567)"/><path d="m.951.043a4.261 4.261 0 0 0 -.942 1.557c-.053.15.148.207.275.069a4.193 4.193 0 0 0 .879-1.476c.037-.127-.085-.265-.212-.15z" fill="#3fafff" transform="translate(29.271 73.242)"/><path d="m2.03 0a5.05 5.05 0 0 0 -2.023 3.774 2.3 2.3 0 0 0 2.531 2.026 2.25 2.25 0 0 0 2.136-2.39 5.1 5.1 0 0 0 -2.644-3.41z" fill="#1f9aff" transform="translate(13.465 64.523)"/><path d="m0 1.5a2.952 2.952 0 0 0 3.448-1.5 1.761 1.761 0 0 1 -1.648 2.308 1.852 1.852 0 0 1 -1.8-.808z" fill="#1790e2" transform="translate(14.05 67.429)"/><path d="m.941.044a4.224 4.224 0 0 0 -.933 1.556c-.051.149.154.2.287.064a4.28 4.28 0 0 0 .871-1.481.136.136 0 0 0 -.225-.139z" fill="#3fafff" transform="translate(14.05 65.104)"/><path d="m3.076 0c-.5-.021-3.011 2.463-3.076 4.579a2.9 2.9 0 0 0 2.83 2.976 2.907 2.907 0 0 0 3.023-2.787c.064-2.117-2.277-4.747-2.777-4.768z" fill="#1f9aff" transform="translate(1.756 49.991)"/><path d="m0 1.216c1.1.612 3.847.16 4.667-1.216.203 1.988-1.555 2.316-2.467 2.325a2.4 2.4 0 0 1 -2.2-1.109z" fill="#1790e2" transform="translate(2.342 54.641)"/><path d="m1.466.037a4.733 4.733 0 0 0 -1.448 1.537c-.089.159.178.234.368.1a4.645 4.645 0 0 0 1.359-1.468c.055-.113-.1-.281-.279-.169z" fill="#3fafff" transform="translate(2.927 51.153)"/><path d="m2.166 0a5.059 5.059 0 0 0 -2.166 3.7 2.284 2.284 0 0 0 2.452 2.11 2.263 2.263 0 0 0 2.23-2.318 5.112 5.112 0 0 0 -2.516-3.492z" fill="#1f9aff" transform="translate(0 33.133)"/><path d="m0 1.425a2.883 2.883 0 0 0 3.47-1.425 1.8 1.8 0 0 1 -1.714 2.314 1.793 1.793 0 0 1 -1.756-.889z" fill="#1790e2" transform="translate(.585 36.04)"/><path d="m.955.048a4.41 4.41 0 0 0 -.946 1.552c-.052.149.146.207.27.069a4.373 4.373 0 0 0 .884-1.469c.037-.129-.083-.278-.208-.152z" fill="#3fafff" transform="translate(.585 33.715)"/><path d="m2.167 0c-.442.052-2.362 2.65-2.151 4.6a2.641 2.641 0 0 0 2.9 2.363 2.659 2.659 0 0 0 2.336-2.948c-.211-1.956-2.643-4.065-3.085-4.015z" fill="#1f9aff" transform="translate(5.854 16.276)"/><path d="m0 1.945a3.432 3.432 0 0 0 4-1.945 2.137 2.137 0 0 1 -1.851 2.877 2.16 2.16 0 0 1 -2.149-.932z" fill="#1790e2" transform="translate(6.44 19.764)"/><path d="m.933.047a4.218 4.218 0 0 0 -.927 1.559c-.046.153.165.189.294.054a4.121 4.121 0 0 0 .862-1.478.135.135 0 0 0 -.229-.135z" fill="#3fafff" transform="translate(6.44 17.439)"/><path d="m2.231 0c-.394.011-2.28 2.229-2.231 4.027a2.387 2.387 0 0 0 2.412 2.366 2.4 2.4 0 0 0 2.27-2.513c-.05-1.798-2.048-3.89-2.451-3.88z" fill="#1f9aff" transform="translate(17.563 5.232)"/><path d="m0 1.38a2.839 2.839 0 0 0 3.477-1.38 1.812 1.812 0 0 1 -1.743 2.32 1.822 1.822 0 0 1 -1.734-.94z" fill="#1790e2" transform="translate(18.148 8.719)"/><path d="m.962.043a4.434 4.434 0 0 0 -.952 1.549c-.057.15.141.214.264.075a4.239 4.239 0 0 0 .887-1.475c.047-.117-.076-.267-.199-.149z" fill="#3fafff" transform="translate(18.148 5.813)"/><path d="m2.015 0a5.037 5.037 0 0 0 -2.007 3.787 2.3 2.3 0 0 0 2.539 2.013 2.248 2.248 0 0 0 2.126-2.4 5.133 5.133 0 0 0 -2.658-3.4z" fill="#1f9aff" transform="translate(35.125)"/><path d="m0 1.51a2.977 2.977 0 0 0 3.446-1.51 1.758 1.758 0 0 1 -1.634 2.306 1.855 1.855 0 0 1 -1.812-.796z" fill="#1790e2" transform="translate(35.711 2.906)"/><path d="m.942.049a4.068 4.068 0 0 0 -.933 1.551c-.054.155.163.2.282.055a4.122 4.122 0 0 0 .868-1.484c.054-.111-.087-.244-.217-.122z" fill="#3fafff" transform="translate(35.711 .581)"/><text fill="#1760a0" font-family="YuGo-Bold, YuGothic" font-size="36" font-weight="700" transform="translate(22.66 22.5)"><tspan x=".227" y="32">②</tspan></text></svg>