<svg height="128.669" viewBox="0 0 87.049 128.669" width="87.049" xmlns="http://www.w3.org/2000/svg"><g transform="translate(-315.42 -137.306)"><g><path d="m387.9 172.212a1.368 1.368 0 0 0 1.778-.761l12.72-32.8a.979.979 0 0 0 -1.817-.727l-13.441 32.514a1.367 1.367 0 0 0 .76 1.774z"/><path d="m357.25 150.459a9.74 9.74 0 1 1 -9.74-9.74 9.741 9.741 0 0 1 9.74 9.74z"/></g><g><path d="m345.708 163.262h4.4v2.2h-4.4z"/><path d="m347.908 174.7 2.2-2.823v-5.456h-4.4v5.456z"/><path d="m390.953 167.8a3.789 3.789 0 0 0 -5.36 0l-11.068 10.15-6.69-7.762a21.629 21.629 0 0 0 -9.8-6.5l-10.127 12.994-10.278-13.187a21.511 21.511 0 0 0 -10.447 6.69l-10.867 12.176a4.654 4.654 0 0 0 -.234 5.137l10.212 15.337a3.791 3.791 0 0 0 6.5-3.9l-6.86-12.735 6.784-6.624c.663 21.833 2.947 81.46 2.947 81.46a4.941 4.941 0 1 0 9.883 0l1.12-25.473.841-19.092.842 19.092 1.12 25.473a4.941 4.941 0 1 0 9.882 0s2.285-59.627 2.947-81.46l8.867 8.01a4.651 4.651 0 0 0 6.577 0l13.209-14.425a3.79 3.79 0 0 0 0-5.361zm-43.045 23.1a1.238 1.238 0 1 1 1.237-1.237 1.237 1.237 0 0 1 -1.237 1.237zm0-6.682a1.237 1.237 0 1 1 1.237-1.237 1.237 1.237 0 0 1 -1.237 1.236z"/></g></g></svg>