<svg xmlns="http://www.w3.org/2000/svg" width="80.788" height="80.217" viewBox="0 0 80.788 80.217">
  <g id="グループ_4" data-name="グループ 4" transform="translate(0 0)">
    <g id="f1460_1">
      <path id="Path" d="M2.119,0C1.721.021-.1,2.3,0,4.091a2.387,2.387,0,0,0,2.472,2.3,2.415,2.415,0,0,0,2.2-2.579C4.571,2.02,2.516-.021,2.119,0Z" transform="translate(48.005 1.163)" fill="#1f9aff"/>
      <path id="Path-2" data-name="Path" d="M0,1.44A2.909,2.909,0,0,0,3.462,0,1.786,1.786,0,0,1,1.774,2.314,1.825,1.825,0,0,1,0,1.44Z" transform="translate(48.59 4.65)" fill="#1790e2"/>
      <path id="Path-3" data-name="Path" d="M.947.043A4.283,4.283,0,0,0,.01,1.6c-.057.155.153.207.277.062A4.341,4.341,0,0,0,1.167.178.132.132,0,0,0,.947.043Z" transform="translate(48.59 1.744)" fill="#3fafff"/>
      <path id="Path-4" data-name="Path" d="M3.5,0C3.009-.059.284,2.034.022,3.976A2.739,2.739,0,0,0,2.573,6.955a2.886,2.886,0,0,0,3.26-2.331C6.084,2.681,3.991.061,3.5,0Z" transform="translate(62.055 9.882)" fill="#1f9aff"/>
      <path id="Path-5" data-name="Path" d="M0,.94A3.937,3.937,0,0,0,4.683,0,2.221,2.221,0,0,1,2.026,2.315,2.281,2.281,0,0,1,0,.94Z" transform="translate(62.64 13.951)" fill="#1790e2"/>
      <path id="Path-6" data-name="Path" d="M1.5.034A4.873,4.873,0,0,0,.022,1.555c-.095.154.137.257.326.134A4.88,4.88,0,0,0,1.735.24.157.157,0,0,0,1.5.034Z" transform="translate(63.226 10.463)" fill="#3fafff"/>
      <path id="Path-7" data-name="Path" d="M2.743,0A5.175,5.175,0,0,0,.013,3.351,2.255,2.255,0,0,0,2.094,5.8,2.313,2.313,0,0,0,4.669,3.822,5,5,0,0,0,2.743,0Z" transform="translate(73.178 22.67)" fill="#1f9aff"/>
      <path id="Path-8" data-name="Path" d="M0,.992c.761.726,2.817.427,3.512-.992.019,2.145-1.3,2.375-1.97,2.318A1.875,1.875,0,0,1,0,.992Z" transform="translate(73.763 25.577)" fill="#1790e2"/>
      <path id="Path-9" data-name="Path" d="M1,.022A3.146,3.146,0,0,0,.015,1.039c-.067.1.1.168.218.088A3.157,3.157,0,0,0,1.157.158.107.107,0,0,0,1,.022Z" transform="translate(74.349 23.251)" fill="#3fafff"/>
      <path id="Path-10" data-name="Path" d="M2.964,0C2.463,0,.021,2.529,0,4.649A2.911,2.911,0,0,0,2.9,7.557,2.914,2.914,0,0,0,5.854,4.7C5.865,2.582,3.455.01,2.964,0Z" transform="translate(74.934 37.202)" fill="#1f9aff"/>
      <path id="Path-11" data-name="Path" d="M0,1.6c1.119.721,3.873.109,4.658-1.6a2.355,2.355,0,0,1-2.42,2.9A2.39,2.39,0,0,1,0,1.6Z" transform="translate(75.519 41.271)" fill="#1790e2"/>
      <path id="Path-12" data-name="Path" d="M1.459.038A4.678,4.678,0,0,0,.018,1.582c-.091.157.194.222.377.092A4.568,4.568,0,0,0,1.744.2C1.8.084,1.642-.073,1.459.038Z" transform="translate(76.105 37.784)" fill="#3fafff"/>
      <path id="Path-13" data-name="Path" d="M3.034,0C2.532-.01.054,2.491,0,4.614A2.906,2.906,0,0,0,2.863,7.556,2.911,2.911,0,0,0,5.853,4.74C5.907,2.617,3.525.011,3.034,0Z" transform="translate(71.421 52.897)" fill="#1f9aff"/>
      <path id="Path-14" data-name="Path" d="M0,1.558C1.1,2.309,3.86,1.713,4.664,0A2.366,2.366,0,0,1,2.219,2.906,2.419,2.419,0,0,1,0,1.558Z" transform="translate(72.007 56.966)" fill="#1790e2"/>
      <path id="Path-15" data-name="Path" d="M1.462.038A4.633,4.633,0,0,0,.018,1.577c-.09.159.181.233.372.093A4.658,4.658,0,0,0,1.745.206C1.8.085,1.643-.074,1.462.038Z" transform="translate(72.592 53.478)" fill="#3fafff"/>
      <path id="Path-16" data-name="Path" d="M1.744,0A4.557,4.557,0,0,0,.008,3.418a2.037,2.037,0,0,0,2.232,1.8A2.015,2.015,0,0,0,4.089,3.045,4.607,4.607,0,0,0,1.744,0Z" transform="translate(62.64 67.429)" fill="#1f9aff"/>
      <path id="Path-17" data-name="Path" d="M0,1.519A2.343,2.343,0,0,0,2.868,0C3.192,1.763,2.1,2.217,1.515,2.306A1.5,1.5,0,0,1,0,1.519Z" transform="translate(63.811 70.336)" fill="#1790e2"/>
      <path id="Path-18" data-name="Path" d="M.938.032A2.86,2.86,0,0,0,.007,1.068c-.048.1.167.129.287.04A2.753,2.753,0,0,0,1.165.12C1.2.04,1.058-.049.938.032Z" transform="translate(63.226 68.592)" fill="#3fafff"/>
      <path id="Path-19" data-name="Path" d="M2.848,0C2.35.01-.031,2.6,0,4.721A2.9,2.9,0,0,0,2.975,7.556,2.9,2.9,0,0,0,5.854,4.628C5.812,2.512,3.345-.01,2.848,0Z" transform="translate(46.248 72.661)" fill="#1f9aff"/>
      <path id="Path-20" data-name="Path" d="M0,1.673A3.883,3.883,0,0,0,4.645,0a2.327,2.327,0,0,1-2.36,2.9A2.414,2.414,0,0,1,0,1.673Z" transform="translate(46.834 76.73)" fill="#1790e2"/>
      <path id="Path-21" data-name="Path" d="M1.449.042A4.633,4.633,0,0,0,.015,1.588c-.082.154.2.217.385.081A4.473,4.473,0,0,0,1.741.2C1.81.078,1.636-.075,1.449.042Z" transform="translate(46.834 73.823)" fill="#3fafff"/>
      <path id="Path-22" data-name="Path" d="M2.143,0A5.037,5.037,0,0,0,0,3.71a2.3,2.3,0,0,0,2.46,2.1A2.268,2.268,0,0,0,4.68,3.48,5.1,5.1,0,0,0,2.143,0Z" transform="translate(28.686 72.661)" fill="#1f9aff"/>
      <path id="Path-23" data-name="Path" d="M0,1.435A2.9,2.9,0,0,0,3.467,0,1.789,1.789,0,0,1,1.76,2.314,1.8,1.8,0,0,1,0,1.435Z" transform="translate(29.271 75.567)" fill="#1790e2"/>
      <path id="Path-24" data-name="Path" d="M.951.043A4.261,4.261,0,0,0,.009,1.6c-.053.15.148.207.275.069A4.193,4.193,0,0,0,1.163.193C1.2.066,1.078-.072.951.043Z" transform="translate(29.271 73.242)" fill="#3fafff"/>
      <path id="Path-25" data-name="Path" d="M2.03,0A5.05,5.05,0,0,0,.007,3.774,2.3,2.3,0,0,0,2.538,5.8,2.25,2.25,0,0,0,4.674,3.41,5.1,5.1,0,0,0,2.03,0Z" transform="translate(13.465 64.523)" fill="#1f9aff"/>
      <path id="Path-26" data-name="Path" d="M0,1.5A2.952,2.952,0,0,0,3.448,0,1.761,1.761,0,0,1,1.8,2.308,1.852,1.852,0,0,1,0,1.5Z" transform="translate(14.05 67.429)" fill="#1790e2"/>
      <path id="Path-27" data-name="Path" d="M.941.044A4.224,4.224,0,0,0,.008,1.6c-.051.149.154.2.287.064A4.28,4.28,0,0,0,1.166.183.136.136,0,0,0,.941.044Z" transform="translate(14.05 65.104)" fill="#3fafff"/>
      <path id="Path-28" data-name="Path" d="M3.076,0C2.576-.021.065,2.463,0,4.579a2.9,2.9,0,0,0,2.83,2.976A2.907,2.907,0,0,0,5.853,4.768C5.917,2.651,3.576.021,3.076,0Z" transform="translate(1.756 49.991)" fill="#1f9aff"/>
      <path id="Path-29" data-name="Path" d="M0,1.216c1.1.612,3.847.16,4.667-1.216C4.87,1.988,3.112,2.316,2.2,2.325A2.4,2.4,0,0,1,0,1.216Z" transform="translate(2.342 54.641)" fill="#1790e2"/>
      <path id="Path-30" data-name="Path" d="M1.466.037A4.733,4.733,0,0,0,.018,1.574c-.089.159.178.234.368.1A4.645,4.645,0,0,0,1.745.206C1.8.093,1.645-.075,1.466.037Z" transform="translate(2.927 51.153)" fill="#3fafff"/>
      <path id="Path-31" data-name="Path" d="M2.166,0A5.059,5.059,0,0,0,0,3.7,2.284,2.284,0,0,0,2.452,5.81a2.263,2.263,0,0,0,2.23-2.318A5.112,5.112,0,0,0,2.166,0Z" transform="translate(0 33.133)" fill="#1f9aff"/>
      <path id="Path-32" data-name="Path" d="M0,1.425A2.883,2.883,0,0,0,3.47,0,1.8,1.8,0,0,1,1.756,2.314,1.793,1.793,0,0,1,0,1.425Z" transform="translate(0.585 36.04)" fill="#1790e2"/>
      <path id="Path-33" data-name="Path" d="M.955.048A4.41,4.41,0,0,0,.009,1.6c-.052.149.146.207.27.069A4.373,4.373,0,0,0,1.163.2C1.2.071,1.08-.078.955.048Z" transform="translate(0.585 33.715)" fill="#3fafff"/>
      <path id="Path-34" data-name="Path" d="M2.167,0C1.725.052-.195,2.65.016,4.6a2.641,2.641,0,0,0,2.9,2.363A2.659,2.659,0,0,0,5.252,4.015C5.041,2.059,2.609-.05,2.167,0Z" transform="translate(5.854 16.276)" fill="#1f9aff"/>
      <path id="Path-35" data-name="Path" d="M0,1.945A3.432,3.432,0,0,0,4,0,2.137,2.137,0,0,1,2.149,2.877,2.16,2.16,0,0,1,0,1.945Z" transform="translate(6.44 19.764)" fill="#1790e2"/>
      <path id="Path-36" data-name="Path" d="M.933.047A4.218,4.218,0,0,0,.006,1.606c-.046.153.165.189.294.054A4.121,4.121,0,0,0,1.162.182.135.135,0,0,0,.933.047Z" transform="translate(6.44 17.439)" fill="#3fafff"/>
      <path id="Path-37" data-name="Path" d="M2.231,0C1.837.011-.049,2.229,0,4.027A2.387,2.387,0,0,0,2.412,6.393,2.4,2.4,0,0,0,4.682,3.88C4.632,2.082,2.634-.01,2.231,0Z" transform="translate(17.563 5.232)" fill="#1f9aff"/>
      <path id="Path-38" data-name="Path" d="M0,1.38A2.839,2.839,0,0,0,3.477,0,1.812,1.812,0,0,1,1.734,2.32,1.822,1.822,0,0,1,0,1.38Z" transform="translate(18.148 8.719)" fill="#1790e2"/>
      <path id="Path-39" data-name="Path" d="M.962.043A4.434,4.434,0,0,0,.01,1.592c-.057.15.141.214.264.075A4.239,4.239,0,0,0,1.161.192C1.208.075,1.085-.075.962.043Z" transform="translate(18.148 5.813)" fill="#3fafff"/>
      <path id="Path-40" data-name="Path" d="M2.015,0A5.037,5.037,0,0,0,.008,3.787,2.3,2.3,0,0,0,2.547,5.8,2.248,2.248,0,0,0,4.673,3.4,5.133,5.133,0,0,0,2.015,0Z" transform="translate(35.125)" fill="#1f9aff"/>
      <path id="Path-41" data-name="Path" d="M0,1.51A2.977,2.977,0,0,0,3.446,0,1.758,1.758,0,0,1,1.812,2.306,1.855,1.855,0,0,1,0,1.51Z" transform="translate(35.711 2.906)" fill="#1790e2"/>
      <path id="Path-42" data-name="Path" d="M.942.049A4.068,4.068,0,0,0,.009,1.6c-.054.155.163.2.282.055A4.122,4.122,0,0,0,1.159.171C1.213.06,1.072-.073.942.049Z" transform="translate(35.711 0.581)" fill="#3fafff"/>
    </g>
    <g id="グループ_3" data-name="グループ 3">
      <text id="_" data-name="②" transform="translate(22.66 22.5)" fill="#1760a0" font-size="36" font-family="YuGo-Bold, YuGothic" font-weight="700"><tspan x="0.227" y="32">②</tspan></text>
    </g>
  </g>
</svg>
