<svg xmlns="http://www.w3.org/2000/svg" width="87.049" height="128.669" viewBox="0 0 87.049 128.669">
  <g id="グループ_53" data-name="グループ 53" transform="translate(-315.42 -137.306)">
    <g id="グループ_51" data-name="グループ 51">
      <path id="パス_317" data-name="パス 317" d="M387.9,172.212a1.368,1.368,0,0,0,1.778-.761l12.72-32.8a.979.979,0,0,0-1.817-.727l-13.441,32.514A1.367,1.367,0,0,0,387.9,172.212Z"/>
      <path id="パス_318" data-name="パス 318" d="M357.25,150.459a9.74,9.74,0,1,1-9.74-9.74A9.741,9.741,0,0,1,357.25,150.459Z"/>
    </g>
    <g id="グループ_52" data-name="グループ 52">
      <rect id="長方形_3" data-name="長方形 3" width="4.4" height="2.2" transform="translate(345.708 163.262)"/>
      <path id="パス_319" data-name="パス 319" d="M347.908,174.7l2.2-2.823v-5.456h-4.4v5.456Z"/>
      <path id="パス_320" data-name="パス 320" d="M390.953,167.8a3.789,3.789,0,0,0-5.36,0l-11.068,10.15-6.69-7.762a21.629,21.629,0,0,0-9.8-6.5l-10.127,12.994L337.63,163.495a21.511,21.511,0,0,0-10.447,6.69l-10.867,12.176a4.654,4.654,0,0,0-.234,5.137l10.212,15.337a3.791,3.791,0,0,0,6.5-3.9L325.934,186.2l6.784-6.624c.663,21.833,2.947,81.46,2.947,81.46a4.941,4.941,0,1,0,9.883,0l1.12-25.473.841-19.092.842,19.092,1.12,25.473a4.941,4.941,0,1,0,9.882,0s2.285-59.627,2.947-81.46l8.867,8.01a4.651,4.651,0,0,0,6.577,0h0l13.209-14.425A3.79,3.79,0,0,0,390.953,167.8Zm-43.045,23.1a1.238,1.238,0,1,1,1.237-1.237A1.237,1.237,0,0,1,347.908,190.9Zm0-6.682a1.237,1.237,0,1,1,1.237-1.237A1.237,1.237,0,0,1,347.908,184.217Z"/>
    </g>
  </g>
</svg>
