<svg enable-background="new 0 0 800 640.1" viewBox="0 0 800 640.1" xmlns="http://www.w3.org/2000/svg"><path d="m157 624.1c-.9 0-1.9-.1-2.8-.2-8.6-.7-15.1-5.3-26.3-13.2l-4-2.9c-4-2.8-6.6-7-7.3-11.8-1.6-10 4.8-18.5 17.6-35.5 1.7-2.2 3.7-4.9 5.5-7.4-44.7-32.8-72.5-78-88.3-111.4-19.7-41.6-31.4-87.5-31.4-122.7 0-20.8 2.9-53.7 16.4-92.1 13.1-37.2 33.2-70.7 59.5-99.5 31.2-34.1 70.6-60.8 117.3-79.4 53.1-21.2 116-32 186.8-32s133.6 10.8 186.8 32c46.6 18.6 86.1 45.3 117.3 79.4 26.3 28.8 46.4 62.3 59.5 99.5 13.6 38.4 16.4 71.3 16.4 92.1s-2.9 53.7-16.4 92.1c-13.2 37.2-33.2 70.7-59.5 99.5-31.2 34.1-70.6 60.8-117.3 79.4-53.1 21.2-116 32-186.8 32-74 0-147.7-13.5-199.8-36.5-3.2 3.6-7.1 8.4-9.9 11.8l-.3.3c-14.4 17.6-21.7 26.5-33 26.5z"/><path d="m36.8 319c0 58.3 37.9 173.6 124.7 228.7 4.3 3.4-32.6 43.2-28 46.4 13.3 9.3 17.9 13 22.8 13 5.8 2.8 35.6-43.7 41.8-41.1 50.1 24.5 126.7 39.1 201.8 39.1 293.5 0 363.1-187.1 363.1-286.1s-69.7-286.1-363.1-286.1-363.1 187-363.1 286.1z" fill="#fff"/></svg>