<!--?xml version="1.0" encoding="utf-8"?-->
<!-- Generator: Adobe Illustrator 22.1.0, SVG Export Plug-In . SVG Version: 6.00 Build 0)  -->
<svg version="1.1" id="_x31__1_" xmlns="http://www.w3.org/2000/svg" xmlns:xlink="http://www.w3.org/1999/xlink" x="0px" y="0px" viewBox="0 0 800 640.1" style="enable-background:new 0 0 800 640.1;" xml:space="preserve">
<style type="text/css">
	.stblack{fill:#000000;}
	.st0{fill:#FFFFFF;}
</style>
<g>
	<path class="stblack" d="M157,624.1c-0.9,0-1.9-0.1-2.8-0.2c-8.6-0.7-15.1-5.3-26.3-13.2l-4-2.9c-4-2.8-6.6-7-7.3-11.8c-1.6-10,4.8-18.5,17.6-35.5
		c1.7-2.2,3.7-4.9,5.5-7.4c-44.7-32.8-72.5-78-88.3-111.4C31.7,400.1,20,354.2,20,319c0-20.8,2.9-53.7,16.4-92.1
		c13.1-37.2,33.2-70.7,59.5-99.5c31.2-34.1,70.6-60.8,117.3-79.4c53.1-21.2,116-32,186.8-32s133.6,10.8,186.8,32
		c46.6,18.6,86.1,45.3,117.3,79.4c26.3,28.8,46.4,62.3,59.5,99.5c13.6,38.4,16.4,71.3,16.4,92.1c0,20.8-2.9,53.7-16.4,92.1
		c-13.2,37.2-33.2,70.7-59.5,99.5c-31.2,34.1-70.6,60.8-117.3,79.4c-53.1,21.2-116,32-186.8,32c-74,0-147.7-13.5-199.8-36.5
		c-3.2,3.6-7.1,8.4-9.9,11.8l-0.3,0.3C175.6,615.2,168.3,624.1,157,624.1L157,624.1z"></path>
	<path class="st0" d="M36.8,319c0,58.3,37.9,173.6,124.7,228.7c4.3,3.4-32.6,43.2-28,46.4c13.3,9.3,17.9,13,22.8,13
		c5.8,2.8,35.6-43.7,41.8-41.1c50.1,24.5,126.7,39.1,201.8,39.1c293.5,0,363.1-187.1,363.1-286.1c0-99-69.7-286.1-363.1-286.1
		C106.5,32.9,36.8,219.9,36.8,319z"></path>
</g>
</svg>
