<!--?xml version="1.0" encoding="utf-8"?-->
<!-- Generator: Adobe Illustrator 22.1.0, SVG Export Plug-In . SVG Version: 6.00 Build 0)  -->
<svg version="1.1" id="_x34_" xmlns="http://www.w3.org/2000/svg" xmlns:xlink="http://www.w3.org/1999/xlink" x="0px" y="0px" viewBox="0 0 800 372.3" style="enable-background:new 0 0 800 372.3;" xml:space="preserve">
<style type="text/css">
	.st0{fill:#FFFFFF;}
</style>
<g>
	<path class="st0" d="M765.9,161.1c0-16.3,14.1-16.3,14.1-32.6c0-16.3-14.1-16.3-14.1-32.6c0-8.8,8.5-18.4,5.9-26.3
		c-2.7-8.2-14.8-9.3-19.8-16.2c-5.1-6.9-5.9-20.4-12.8-25.5c-6.9-5-12.9,1.1-25.9-3.4c-7.9-2.8-12.6-14.1-21.4-14.1
		c-16.3,0-14.7,13-31,13c-16.3,0-16.3-14.1-32.6-14.1c-16.3,0-16.3,14.1-32.6,14.1c-16.3,0-16.3-14.1-32.6-14.1
		c-16.3,0-16.3,14.1-32.6,14.1c-16.3,0-16.3-14.1-32.6-14.1s-16.3,14.1-32.6,14.1c-16.3,0-16.3-14.1-32.6-14.1
		c-16.3,0-16.3,14.1-32.6,14.1c-16.3,0-16.3-14.1-32.6-14.1c-16.3,0-16.3,14.1-32.6,14.1c-16.3,0-16.3-14.1-32.6-14.1
		c-16.3,0-16.3,14.1-32.6,14.1c-16.3,0-16.3-14.1-32.6-14.1c-16.3,0-16.3,14.1-32.6,14.1S188.1,9.3,171.8,9.3
		c-16.3,0-16.3,14.1-32.6,14.1c-16.3,0-14.7-13-31-13c-8.8,0-13.5,11.3-21.4,14.1c-12.9,4.5-19-1.6-25.9,3.4
		c-6.9,5.1-7.8,18.5-12.8,25.5c-5,6.9-17.1,7.9-19.8,16.2c-2.6,8,5.9,17.5,5.9,26.3c0,16.3-14.1,16.3-14.1,32.6s14.1,16.3,14.1,32.6
		c0,16.3-14.1,16.3-14.1,32.6c0,16.3,14.1,16.3,14.1,32.6c0,8.8-8.5,18.4-5.9,26.3c2.7,8.2,14.8,9.3,19.8,16.2
		c5.1,6.9,5.9,20.4,12.8,25.5c6.9,5,12.9-1.1,25.9,3.4c7.9,2.8,12.6,14.1,21.4,14.1c16.3,0,14.7-13,31-13
		c16.3,0,16.3,14.1,32.6,14.1c16.3,0,16.3-14.1,32.6-14.1c16.3,0,16.3,14.1,32.6,14.1c16.3,0,16.3-14.1,32.6-14.1
		c16.3,0,16.3,14.1,32.6,14.1c16.3,0,16.3-14.1,32.6-14.1c16.3,0,16.3,14.1,32.6,14.1c16.3,0,16.3-14.1,32.6-14.1
		c16.3,0,16.3,14.1,32.6,14.1s17-9.4,32.6-14.1c23.6-7.1,32.3,11.9,17.9,17.5c-9.1,3.6-22.6,6.2-21.5,17.9
		c0.9,10,7.7,11.3,15.9,13.3c8.2,2.1-1,12.3-6.7,14.4c-5.6,2.1,13.3,2.6,21-9.7c5.1-8.2-12.5-10-0.5-20c9.2-7.7,27.2-4.6,28.7-21.5
		c1.1-11.7,9.3-14.3,21.9-9.5c6.1,2.3,8.3,10.5,21,11.7c16.2,1.5,16.3-14.1,32.6-14.1s16.3,14.1,32.6,14.1
		c16.3,0,16.3-14.1,32.6-14.1s14.7,13,31,13c8.8,0,13.5-11.3,21.4-14.1c12.9-4.5,19,1.6,25.9-3.4c6.9-5.1,7.8-18.5,12.8-25.5
		c5-6.9,17.1-7.9,19.8-16.2c2.6-8-5.9-17.5-5.9-26.3c0-16.3,14.1-16.3,14.1-32.6C780,177.4,765.9,177.4,765.9,161.1z"></path>
</g>
</svg>
