<svg enable-background="new 0 0 800 372.3" viewBox="0 0 800 372.3" xmlns="http://www.w3.org/2000/svg"><path d="m765.9 161.1c0-16.3 14.1-16.3 14.1-32.6s-14.1-16.3-14.1-32.6c0-8.8 8.5-18.4 5.9-26.3-2.7-8.2-14.8-9.3-19.8-16.2-5.1-6.9-5.9-20.4-12.8-25.5-6.9-5-12.9 1.1-25.9-3.4-7.9-2.8-12.6-14.1-21.4-14.1-16.3 0-14.7 13-31 13s-16.3-14.1-32.6-14.1-16.3 14.1-32.6 14.1-16.3-14.1-32.6-14.1-16.3 14.1-32.6 14.1-16.3-14.1-32.6-14.1-16.3 14.1-32.6 14.1-16.3-14.1-32.6-14.1-16.3 14.1-32.6 14.1-16.3-14.1-32.6-14.1-16.3 14.1-32.6 14.1-16.3-14.1-32.6-14.1-16.3 14.1-32.6 14.1-16.3-14.1-32.6-14.1-16.3 14.1-32.6 14.1-16.4-14.1-32.7-14.1-16.3 14.1-32.6 14.1-14.7-13-31-13c-8.8 0-13.5 11.3-21.4 14.1-12.9 4.5-19-1.6-25.9 3.4-6.9 5.1-7.8 18.5-12.8 25.5-5 6.9-17.1 7.9-19.8 16.2-2.6 8 5.9 17.5 5.9 26.3 0 16.3-14.1 16.3-14.1 32.6s14.1 16.3 14.1 32.6-14.1 16.3-14.1 32.6 14.1 16.3 14.1 32.6c0 8.8-8.5 18.4-5.9 26.3 2.7 8.2 14.8 9.3 19.8 16.2 5.1 6.9 5.9 20.4 12.8 25.5 6.9 5 12.9-1.1 25.9 3.4 7.9 2.8 12.6 14.1 21.4 14.1 16.3 0 14.7-13 31-13s16.3 14.1 32.6 14.1 16.3-14.1 32.6-14.1 16.3 14.1 32.6 14.1 16.3-14.1 32.6-14.1 16.3 14.1 32.6 14.1 16.3-14.1 32.6-14.1 16.3 14.1 32.6 14.1 16.3-14.1 32.6-14.1 16.3 14.1 32.6 14.1 17-9.4 32.6-14.1c23.6-7.1 32.3 11.9 17.9 17.5-9.1 3.6-22.6 6.2-21.5 17.9.9 10 7.7 11.3 15.9 13.3 8.2 2.1-1 12.3-6.7 14.4-5.6 2.1 13.3 2.6 21-9.7 5.1-8.2-12.5-10-.5-20 9.2-7.7 27.2-4.6 28.7-21.5 1.1-11.7 9.3-14.3 21.9-9.5 6.1 2.3 8.3 10.5 21 11.7 16.2 1.5 16.3-14.1 32.6-14.1s16.3 14.1 32.6 14.1 16.3-14.1 32.6-14.1 14.7 13 31 13c8.8 0 13.5-11.3 21.4-14.1 12.9-4.5 19 1.6 25.9-3.4 6.9-5.1 7.8-18.5 12.8-25.5 5-6.9 17.1-7.9 19.8-16.2 2.6-8-5.9-17.5-5.9-26.3 0-16.3 14.1-16.3 14.1-32.6.2-16.3-13.9-16.3-13.9-32.6z" fill="#fff"/></svg>