<!--?xml version="1.0" encoding="utf-8"?-->
<!-- Generator: Adobe Illustrator 22.1.0, SVG Export Plug-In . SVG Version: 6.00 Build 0)  -->
<svg version="1.1" id="_x32_" xmlns="http://www.w3.org/2000/svg" xmlns:xlink="http://www.w3.org/1999/xlink" x="0px" y="0px" viewBox="0 0 800 516.1" style="enable-background:new 0 0 800 516.1;" xml:space="preserve">
<style type="text/css">
	.stblack{fill:#000000;}
	.st0{fill:#FFFFFF;}
</style>
<g>
	<path class="stblack" d="M134.9,497.1c-12-4-18.6-14.1-17.6-27c1.1-14.2,12.1-31.1,26.7-33.6c12.8-2.2,17.8-7.7,18-10.9c0.3-3.1-3.7-6.6-9.7-8.7
		c-16.9-5.8-29.2-10.8-34-22.4c-4.4-10.6-0.7-23.5,7.1-40.3c-4-1-9.8-2-14.8-2.8c-20.4-3.4-48.4-8.1-68.6-24.7
		c-14.9-12.2-22.6-29.1-21.9-47.6c0.8-18.7,10.3-37.4,23.7-46.7c20.9-14.5,28.7-29.5,6.8-63.5c-12.6-19.5-12.2-48.8,1-72.9
		c13-23.8,35.7-37.4,62.5-37.4c3.8,0,7.7,0.3,11.6,0.8c7.1,1,13.7,1.4,19.7,1.4c24.7,0,37.1-8,50.3-16.5
		c11.5-7.4,23.4-15.1,42.3-17.3c2.6-0.3,5.3-0.5,7.9-0.5c18.9,0,33,7.9,44.3,14.3c7.5,4.2,14,7.9,19.5,7.9c2.1,0,5.4-0.4,10.2-4.2
		c26.8-21,52.3-31.7,75.7-31.7c14.3,0,27.6,4,39.7,11.9c12.4,8.1,29.2,17.5,48.4,17.5c12.2,0,24.3-3.5,37-10.8
		c15.5-8.9,33.4-13.5,51.8-13.5c28.3,0,54,11.2,63.9,28C646,62,662.2,66,679.4,70.2c17.2,4.2,36.7,9,46.1,28.1
		c6.9,13.9,8,26.1,8.9,36c1.3,13.9,1.8,19.2,14.5,24.3c17.7,7.1,28.6,21.5,30.7,40.7c2.5,22.4-7.7,48.2-23.2,58.9
		c-1.7,1.2-3.4,2.3-5.1,3.4c-16.5,11.1-27.3,18.5-29.7,41.3c-3.3,31.5-24.9,54.4-51.3,54.4c0,0,0,0,0,0c-2,0-4-0.1-6-0.4
		c-5.6-0.8-9.9-1.1-13.8-1.1c-11.4,0-24.6,2.6-43,21.4c-13.3,13.6-33,21.4-54.1,21.4c-18.3,0-34.9-5.8-44.6-15.4
		c-10.2-10.1-21.9-15.3-34.7-15.3c-15.7,0-28,7.7-31.1,11.8c-7.8,10.4-29.5,30.1-55.3,30.1c-6.4,0-12.7-1.2-18.6-3.6
		c-12.2-4.9-19-12.9-24.4-19.3c-5.2-6.1-7.4-8.3-10.8-8.3c-1.1,0-2.4,0.2-3.9,0.6c-4.6,1.2-5.8,3.5-8.5,10c-4,9.5-10,23.9-36.6,25.2
		c-0.9,0-1.8,0.1-2.7,0.1c-21.6,0-33.7-12.6-42.6-21.8c-7.1-7.4-11.4-11.5-17.4-11.5c-0.6,0-1.2,0-1.8,0.1c-2.3,0.3-5.4,2.1-6.6,5.5
		c-1.9,5,0.8,12.1,7.4,19.6c8.6,9.7,10.5,22.1,5.2,34c-7.9,17.6-30.1,30.8-51.6,30.8c-0.9,0-1.9,0-2.8-0.1c-1.3-0.1-2.6-0.1-3.8-0.1
		c-9.7,0-17,2.2-19.9,6.2c-1.5,2-1.8,4.6-0.9,7.7l5.5,18.4L134.9,497.1z"></path>
	<path class="st0" d="M745.2,167.7c-30.4-12.2-13.3-34-28.6-65.1c-15.4-31.1-66.3-13.9-88.8-51.7C615.1,29.5,565.4,17.2,525.5,40
		c-39.9,22.8-70.7,9.4-95.8-7C402,14.9,366.4,20.7,326,52.4c-27.9,21.9-44.5-20.2-86.9-15.4c-42.4,4.8-45.3,41.8-114.8,32.3
		c-62.9-8.5-86.5,61.6-65.4,94.2c24.9,38.6,15.9,59.4-9.5,77c-17.8,12.3-32.4,52.8-1.1,78.5c33.8,27.8,96,19.2,88.6,34.2
		c-19,38.7-12.1,43.6,18.7,54.2c24.8,8.6,21.6,33.5-9.9,38.8c-14.5,2.5-29.1,34.1-7.6,41.3c-4.4-14.5,6-28.1,34.6-26.6
		c28.6,1.5,60-27,41.2-48.2c-20.5-23.1-6.9-40,5.4-41.5c26.1-3.2,29.8,34.7,65.3,33.1c35.5-1.6,20.7-28.9,42.9-34.8
		c22.2-5.9,22.2,17.9,45.4,27.3c26.8,10.8,53.2-11.3,62.2-23.3c9-12,48.6-29.6,80.7,2.4c15.9,15.9,59.8,19.5,84.6-5.9
		c24.8-25.4,43.4-26.2,65.2-23.2c21.8,3,42.9-15.1,46.1-45.2c3.1-30.1,19.8-38.7,39-51.9C770,236.6,784.5,183.5,745.2,167.7z"></path>
</g>
</svg>
