<svg enable-background="new 0 0 800 798.7" viewBox="0 0 800 798.7" xmlns="http://www.w3.org/2000/svg"><path d="m496.5 15.7c-4 .2-22.3 22.2-21.3 39.5.8 13 11.9 22.9 24.9 22.2 13-.8 22.9-11.9 22.2-24.9-1.1-17.3-21.8-37-25.8-36.8z" fill="#1f9aff"/><path d="m481.6 63.8c9.3 5.1 30.9-1.2 36.3-15 3.4 18.9-10.5 23.4-17.7 24.1-13 1.3-18.6-9.1-18.6-9.1z" fill="#1790e2"/><path d="m492.2 23.4c-3.2 2.9-7.3 8.4-9.8 15-.6 1.5 1.6 2 2.9.6 4.4-4.6 7.4-9.4 9.2-14.3.3-1.1-1-2.4-2.3-1.3z" fill="#3fafff"/><path d="m645.6 101.7c-4.5-.6-29.5 20.4-31.9 39.9-1.8 14.7 8.7 28.1 23.4 29.9s28.1-8.7 29.9-23.4c2.3-19.5-16.9-45.8-21.4-46.4z" fill="#1f9aff"/><path d="m619.1 152.6c9.4 7.6 34.9 4.9 43.7-9.5-.1 21.9-16.5 24.1-24.8 23.4-14.7-1.1-18.9-13.9-18.9-13.9z" fill="#1790e2"/><path d="m639.2 109.5c-4.2 2.6-9.9 7.9-14.1 14.8-.9 1.5 1.3 2.5 3.1 1.3 5.9-4.2 10.2-9.1 13.2-14.1.7-1.2-.5-3.1-2.2-2z" fill="#3fafff"/><path d="m747.4 225.1c-3.8-.4-24.7 17.6-26.5 34.2-1.3 12.5 7.7 23.7 20.2 25s23.7-7.7 25-20.2c1.8-16.5-14.8-38.6-18.7-39z" fill="#1f9aff"/><path d="m725.6 268.5c8 6.3 29.6 3.7 36.9-8.6.2 18.6-13.7 20.6-20.7 20.1-12.4-.7-16.2-11.5-16.2-11.5z" fill="#1790e2"/><path d="m742.1 231.8c-3.5 2.2-8.3 6.8-11.7 12.7-.8 1.3 1.2 2.1 2.6 1.1 4.9-3.6 8.6-7.8 11-12.1.6-1.1-.5-2.6-1.9-1.7z" fill="#3fafff"/><path d="m769 370.4c-4.7 0-27.6 24.1-27.8 44.3-.1 15.1 12 27.5 27.2 27.7 15.1.1 27.5-12 27.7-27.2.1-20.2-22.5-44.7-27.1-44.8z" fill="#1f9aff"/><path d="m747.9 425.1c10.4 6.6 36 1 43.3-14.7 2.4 22.3-14 26.3-22.5 26.6-15 .6-20.8-11.9-20.8-11.9z" fill="#1790e2"/><path d="m763.4 379c-3.9 3.1-9.2 9.2-12.6 16.7-.8 1.7 1.7 2.4 3.3 1 5.5-5 9.4-10.4 11.8-15.9.5-1.3-.9-3-2.5-1.8z" fill="#3fafff"/><path d="m737.3 524.1c-4.7-.1-27.9 23.7-28.4 43.9-.3 15.1 11.7 27.7 26.8 28s27.7-11.7 28-26.8c.5-20.2-21.8-45-26.4-45.1z" fill="#1f9aff"/><path d="m715.5 578.6c10.3 6.8 36 1.4 43.5-14.1 2.1 22.3-14.3 26.1-22.8 26.3-15 .3-20.7-12.2-20.7-12.2z" fill="#1790e2"/><path d="m731.6 532.7c-4 3-9.3 9.1-12.8 16.5-.8 1.7 1.6 2.5 3.3 1 5.5-4.9 9.5-10.2 12-15.7.5-1.3-.9-3-2.5-1.8z" fill="#3fafff"/><path d="m637.7 669.7c-3.4.3-18.1 19.4-16.8 33.9 1 10.9 10.7 18.9 21.6 17.9s18.9-10.7 17.9-21.6c-1.3-14.5-19.4-30.5-22.7-30.2z" fill="#1f9aff"/><path d="m626.5 710.6c8 4 26-1.9 30.1-13.7 3.4 15.9-8.1 20-14.2 20.8-10.8 1.5-15.9-7.1-15.9-7.1z" fill="#1790e2"/><path d="m634.3 676.3c-2.6 2.5-5.9 7.3-7.8 12.9-.4 1.3 1.4 1.6 2.4.5 3.6-4 6-8.2 7.3-12.3.3-1-.9-2.1-1.9-1.1z" fill="#3fafff"/><path d="m484.4 722.3c-4.7.1-27.2 24.9-26.9 45.3.2 15.3 12.8 27.4 28.1 27.2s27.4-12.8 27.2-28.1c-.4-20.3-23.7-44.5-28.4-44.4z" fill="#1f9aff"/><path d="m464.5 777.9c10.6 6.4 36.3.1 43.3-15.8 3 22.4-13.4 26.9-22 27.4-15.2.9-21.3-11.6-21.3-11.6z" fill="#1790e2"/><path d="m478.9 731.1c-3.9 3.2-9 9.5-12.3 17.1-.7 1.7 1.7 2.4 3.3.9 5.4-5.1 9.2-10.7 11.5-16.3.6-1.3-.9-3-2.5-1.7z" fill="#3fafff"/><path d="m303.7 722.6c-3.6.2-20.2 19.9-19.4 35.5.6 11.7 10.6 20.7 22.3 20.1s20.7-10.6 20.1-22.3c-.8-15.6-19.4-33.5-23-33.3z" fill="#1f9aff"/><path d="m290.1 765.8c8.3 4.6 27.8-.9 32.7-13.4 2.9 17.1-9.5 21-16.1 21.6-11.6 1.2-16.6-8.2-16.6-8.2z" fill="#1790e2"/><path d="m299.8 729.5c-2.9 2.6-6.6 7.5-8.9 13.5-.5 1.3 1.4 1.8 2.6.6 4-4.1 6.7-8.4 8.3-12.8.4-1.1-.8-2.3-2-1.3z" fill="#3fafff"/><path d="m152.1 638.5c-3.8.3-20.8 21.8-19.5 38.3 1 12.4 11.9 21.7 24.4 20.6 12.4-1 21.7-11.9 20.6-24.3-1.3-16.5-21.6-34.9-25.5-34.6z" fill="#1f9aff"/><path d="m139 684.9c9 4.7 29.6-1.9 34.4-15.3 3.7 18.1-9.5 22.6-16.4 23.5-12.3 1.6-18-8.2-18-8.2z" fill="#1790e2"/><path d="m148.2 646c-3 2.8-6.8 8.2-9.1 14.6-.5 1.4 1.5 1.9 2.8.6 4.1-4.5 6.9-9.2 8.5-13.9.3-1.1-1-2.4-2.2-1.3z" fill="#3fafff"/><path d="m49.2 498.5c-4.7-.2-28.3 23.5-28.9 43.7-.5 15.2 11.4 27.9 26.6 28.4s27.9-11.4 28.4-26.6c.6-20.2-21.4-45.3-26.1-45.5z" fill="#1f9aff"/><path d="m26.8 552.9c10.3 6.9 36.1 1.8 43.8-13.7 1.9 22.4-14.6 26.1-23.2 26.2-15.1.2-20.6-12.5-20.6-12.5z" fill="#1790e2"/><path d="m43.4 507c-4 3-9.4 9-13 16.4-.8 1.7 1.6 2.5 3.3 1.1 5.6-4.8 9.6-10.2 12.2-15.7.5-1.2-.9-3-2.5-1.8z" fill="#3fafff"/><path d="m23.7 331.3c-3.6.2-20.4 19.9-19.7 35.6.5 11.8 10.5 20.9 22.3 20.3 11.8-.5 20.8-10.5 20.3-22.3-.7-15.7-19.3-33.7-22.9-33.6z" fill="#1f9aff"/><path d="m9.7 374.7c8.4 4.7 28-.8 33-13.3 2.8 17.2-9.7 21-16.3 21.6-11.7 1.2-16.7-8.3-16.7-8.3z" fill="#1790e2"/><path d="m19.7 338.3c-2.9 2.6-6.7 7.5-9.1 13.5-.5 1.3 1.4 1.8 2.6.6 4.1-4.1 6.8-8.5 8.5-12.8.4-1.1-.8-2.4-2-1.3z" fill="#3fafff"/><path d="m81.2 164.5c-4.4.5-23.5 26-21.4 45.1 1.6 14.4 14.5 24.8 28.9 23.2s24.8-14.5 23.2-28.9c-2.1-19.2-26.3-39.9-30.7-39.4z" fill="#1f9aff"/><path d="m67.4 218.8c10.6 5.1 34.3-3.1 39.5-18.8 4.8 20.9-10.3 26.6-18.3 27.8-14.3 2.2-21.2-9-21.2-9z" fill="#1790e2"/><path d="m76.8 173.3c-3.4 3.4-7.6 9.8-10.1 17.3-.5 1.7 1.8 2.1 3.2.6 4.6-5.3 7.7-10.9 9.4-16.4.5-1.4-1.1-2.8-2.5-1.5z" fill="#3fafff"/><path d="m196.3 55.8c-3.9.1-22.6 21.2-22.1 38.3.4 12.8 11.1 22.9 23.9 22.5s22.9-11.1 22.5-23.9c-.5-17.1-20.3-37-24.3-36.9z" fill="#1f9aff"/><path d="m180.3 102.7c9 5.3 30.4-.3 36.1-13.8 2.8 18.7-11 22.7-18.1 23.2-12.7.9-18-9.4-18-9.4z" fill="#1790e2"/><path d="m191.9 63.2c-3.2 2.7-7.4 8.1-10.1 14.5-.6 1.4 1.5 2 2.8.7 4.5-4.4 7.6-9.1 9.4-13.8.5-1.1-.8-2.5-2.1-1.4z" fill="#3fafff"/><path d="m367.2 4c-3.7.3-19.8 21-18.5 36.8 1 11.9 11.5 20.7 23.4 19.6 11.9-1 20.7-11.5 19.6-23.4-1.3-15.8-20.9-33.3-24.5-33z" fill="#1f9aff"/><path d="m354.8 48.5c8.7 4.4 28.3-2 32.9-14.8 3.6 17.3-9 21.7-15.6 22.6-11.8 1.6-17.3-7.8-17.3-7.8z" fill="#1790e2"/><path d="m363.4 11.2c-2.9 2.7-6.5 7.9-8.6 14-.5 1.4 1.5 1.8 2.6.5 3.9-4.3 6.5-8.8 8-13.4.5-1-.8-2.2-2-1.1z" fill="#3fafff"/></svg>