<svg height="91" viewBox="0 0 304 91" width="304" xmlns="http://www.w3.org/2000/svg"><path d="m286.581919 44.197985c0-4.745897 5.418081-4.745897 5.418081-9.4917939s-5.418081-4.7458969-5.418081-9.4917939c0-2.562202 3.266219-5.3573315 2.26714-7.6574901-1.037505-2.3875065-5.687064-2.7077817-7.608369-4.716781-1.959732-2.0089993-2.267141-5.93965019-4.918542-7.42456272-2.651402-1.45579661-4.956968.32027525-9.952363-.9899417-3.035662-.8152461-4.841689-4.10534643-8.223187-4.10534643-6.263455 0-5.648638 3.78507118-11.912093 3.78507118-6.263456 0-6.263456-4.10534643-12.526912-4.10534643s-6.263456 4.10534643-12.526911 4.10534643c-6.263456 0-6.263456-4.10534643-12.526912-4.10534643-6.263455 0-6.263455 4.10534643-12.526911 4.10534643s-6.263456-4.10534643-12.526912-4.10534643c-6.263455 0-6.263455 4.10534643-12.526911 4.10534643s-6.263456-4.10534643-12.526912-4.10534643c-6.263455 0-6.263455 4.10534643-12.526911 4.10534643s-6.263456-4.10534643-12.526911-4.10534643c-6.263456 0-6.263456 4.10534643-12.526912 4.10534643s-6.263456-4.10534643-12.526911-4.10534643c-6.263456 0-6.263456 4.10534643-12.5269117 4.10534643s-6.2634557-4.10534643-12.5269114-4.10534643-6.2634557 4.10534643-12.5269115 4.10534643c-6.2634557 0-6.3018818-4.10534643-12.5653375-4.10534643s-6.2634557 4.10534643-12.5269114 4.10534643c-6.2634558 0-5.648638-3.78507118-11.9120937-3.78507118-3.3814976 0-5.1875247 3.29010033-8.2231873 4.10534643-4.956968 1.31021695-7.3009607-.46585491-9.9523622.9899417-2.6514015 1.48491253-2.9972364 5.38644742-4.9185419 7.42456272-1.9213054 2.0089993-6.57086455 2.3001586-7.60836949 4.716781-.99907882 2.3292745 2.26714042 5.0952881 2.26714042 7.6574901 0 4.745897-5.41808133 4.745897-5.41808133 9.4917939s5.41808133 4.7458969 5.41808133 9.4917939c0 4.7458969-5.41808133 4.7458969-5.41808133 9.4917938 0 4.745897 5.41808133 4.745897 5.41808133 9.4917939 0 2.5622021-3.26621924 5.3573315-2.26714042 7.6574902 1.03750494 2.3875064 5.68706409 2.7077817 7.60836949 4.716781 1.9597316 2.0089993 2.2671404 5.9396501 4.9185419 7.4245627 2.6514015 1.4557966 4.9569681-.3202753 9.9523622.9899417 3.0356626.8152461 4.8416897 4.1053464 8.2231873 4.1053464 6.2634557 0 5.6486379-3.7850712 11.9120937-3.7850712 6.2634557 0 6.2634557 4.1053464 12.5269114 4.1053464s6.2634557-4.1053464 12.5269114-4.1053464 6.2634557 4.1053464 12.5269115 4.1053464c6.2634557 0 6.2634557-4.1053464 12.5269114-4.1053464 6.2634558 0 6.2634558 4.1053464 12.5269118 4.1053464 6.263455 0 6.263455-4.1053464 12.526911-4.1053464s6.263456 4.1053464 12.526912 4.1053464c6.263455 0 6.263455-4.1053464 12.526911-4.1053464s6.263456 4.1053464 12.526911 4.1053464c6.263456 0 6.532439-2.7368976 12.526912-4.1053464 9.068561-2.0672312 9.068561 7.8947099 14.709615 3.7850712 4.304553-3.1359676 9.92152-4.4838536 14.76321-3.0862888 2.343993.6696664 3.189367 3.0571729 8.069483 3.406564 6.22503.436739 6.263456-4.1053464 12.526911-4.1053464 6.263456 0 6.263456 4.1053464 12.526912 4.1053464s6.263456-4.1053464 12.526911-4.1053464c6.263456 0 5.648638 3.7850712 11.912094 3.7850712 3.381498 0 5.187525-3.2901003 8.223187-4.1053464 2.879121-.761004 12.653873 1.4186351 20.212133 4.1053464 5.454761 1.9389867 14.383527-1.4654581 15.494934-2.0756947.514117-.2879305-6.859291 1.2559633-13.227793-1.0105941-2.088479-.7432921-5.257678-2.7397608-9.507597-5.9894059.54109-1.5269609 1.174166-2.6750129 1.899227-3.4441561 1.921306-2.0089993 6.570865-2.3001587 7.60837-4.716781.999079-2.3292746-2.267141-5.0952881-2.267141-7.6574902 0-4.7458969 5.418082-4.7458969 5.418082-9.4917939.076852-4.7458969-5.341229-4.7458969-5.341229-9.4917938z" fill="#fff" stroke="#000" transform="translate(1 1)"/></svg>