<svg id="Group_2" data-name="Group 2" xmlns="http://www.w3.org/2000/svg" xmlns:xlink="http://www.w3.org/1999/xlink" width="321" height="166" viewBox="0 0 321 166">
  <defs>
    <linearGradient id="linear-gradient" x1="0.5" y1="1" x2="0.5" y2="0.542" gradientUnits="objectBoundingBox">
      <stop offset="0" stop-color="#eee"/>
      <stop offset="0" stop-color="#48c0f4"/>
      <stop offset="1" stop-color="#eefbfd"/>
    </linearGradient>
    <filter id="水力" x="20" y="75" width="85" height="82" filterUnits="userSpaceOnUse">
      <feOffset dx="2" dy="2" input="SourceAlpha"/>
      <feGaussianBlur stdDeviation="2" result="blur"/>
      <feFlood flood-opacity="0.502"/>
      <feComposite operator="in" in2="blur"/>
      <feComposite in="SourceGraphic"/>
    </filter>
    <filter id="マイクロ" x="216" y="104" width="105" height="49" filterUnits="userSpaceOnUse">
      <feOffset dx="2" dy="2" input="SourceAlpha"/>
      <feGaussianBlur stdDeviation="2" result="blur-2"/>
      <feFlood flood-opacity="0.502"/>
      <feComposite operator="in" in2="blur-2"/>
      <feComposite in="SourceGraphic"/>
    </filter>
  </defs>
  <g id="Group">
    <g id="Combined_Shape" data-name="Combined Shape" stroke-miterlimit="10" fill="url(#linear-gradient)">
      <path d="M 60.00030899047852 165.4996185302734 C 51.95845413208008 165.4996185302734 44.15795516967773 164.1544342041016 36.81545639038086 161.5014038085938 C 29.72749710083008 158.9403381347656 23.36291313171387 155.27490234375 17.89849662780762 150.6068878173828 C 15.20799732208252 148.3084869384766 12.76566410064697 145.7798156738281 10.63933086395264 143.0911560058594 C 8.493934631347656 140.3783569335938 6.651517868041992 137.478759765625 5.163226127624512 134.4728851318359 C 2.068934679031372 128.223388671875 0.4999970495700836 121.5855331420898 0.4999970495700836 114.7436981201172 C 0.4999970495700836 103.6732788085938 7.134497165679932 93.50028228759766 14.8165807723999 81.72092437744141 C 16.05889320373535 79.81600952148438 17.3435173034668 77.84623718261719 18.62249755859375 75.83701324462891 C 22.10410118103027 70.36778259277344 25.99026870727539 65.38178253173828 30.17305946350098 61.01755142211914 L 30.21028900146484 60.97869873046875 L 30.23839378356934 60.93284225463867 C 31.55666351318359 58.78188323974609 33.04678726196289 56.71869659423828 34.66741561889648 54.80059432983398 C 40.30514144897461 48.13007354736328 45.89943313598633 39.98477935791016 51.76993560791016 29.89932250976562 C 55.42061233520508 23.62754058837891 62.80510330200195 6.351674556732178 64.86574554443359 1.483181357383728 C 66.29932403564453 6.2895188331604 71.30355072021484 22.71137619018555 74.83663940429688 29.86911392211914 C 77.20310211181641 34.66586303710938 81.797119140625 41.46565628051758 86.26822662353516 46.78946685791016 C 87.14326477050781 47.8311767578125 87.91718292236328 48.88221740722656 88.66560363769531 49.89865493774414 C 89.484375 51.01063537597656 90.25776672363281 52.06096649169922 91.02420806884766 52.89477920532227 C 91.74257659912109 53.67607116699219 96.63539123535156 61.97048950195312 97.29274749755859 63.12655258178711 C 97.56847381591797 63.61178207397461 99.48184967041016 65.96467590332031 102.5808715820312 69.76348876953125 C 105.5200500488281 73.36635589599609 109.5412216186523 78.29557037353516 109.8335647583008 78.91954803466797 L 109.8560791015625 78.99219512939453 L 109.9119567871094 79.06407165527344 C 110.4863510131836 79.80294799804688 110.8439788818359 80.48344421386719 111.0374374389648 81.20565795898438 L 111.0558929443359 81.27457427978516 L 111.0928955078125 81.33554840087891 C 113.9809112548828 86.09759521484375 116.1853713989258 91.79134368896484 117.6449966430664 98.25865936279297 C 119.1779327392578 105.0507354736328 119.4997024536133 110.9722213745117 119.4997024536133 114.7436981201172 C 119.4997024536133 121.5855331420898 117.9308090209961 128.2234039306641 114.8366241455078 134.472900390625 C 113.3483734130859 137.4787750244141 111.5059967041016 140.3783874511719 109.3606643676758 143.0911560058594 C 107.2343902587891 145.7798156738281 104.7920989990234 148.3084869384766 102.1016616821289 150.6068878173828 C 96.63737487792969 155.27490234375 90.27289581298828 158.9403686523438 83.18502044677734 161.5014038085938 C 75.84262084960938 164.1544342041016 68.04214477539062 165.4996185302734 60.00030899047852 165.4996185302734 Z" stroke="none"/>
      <path d="M 60.00030517578125 164.9996032714844 C 67.98403167724609 164.9996032714844 75.72732543945312 163.6644134521484 83.01509857177734 161.0311431884766 C 90.04615020751953 158.4906463623047 96.35853576660156 154.8554992675781 101.7768707275391 150.2267150878906 C 104.4426956176758 147.9493713378906 106.8623046875 145.4442749023438 108.9684906005859 142.781005859375 C 111.0921936035156 140.0955810546875 112.9157638549805 137.2256927490234 114.3885345458984 134.2510528564453 C 117.4482803344727 128.0711364746094 118.9997177124023 121.5079116821289 118.9997177124023 114.7437133789062 C 118.9997177124023 110.9976425170898 118.6800765991211 105.1158905029297 117.1572570800781 98.36873626708984 C 115.7095336914062 91.95418548583984 113.5253524780273 86.31064605712891 110.6653747558594 81.59482574462891 L 110.5914001464844 81.47284698486328 L 110.5544891357422 81.33505249023438 C 110.3788528442383 80.67943572998047 110.0492401123047 80.05534362792969 109.5172119140625 79.37096405029297 L 109.4054412841797 79.22718811035156 L 109.3708419799805 79.11555480957031 C 108.9150009155273 78.31890869140625 104.8775482177734 73.36973571777344 102.1933975219727 70.07948303222656 C 98.69964599609375 65.79682159423828 97.13912200927734 63.86823272705078 96.85810089111328 63.37368774414062 C 96.04601287841797 61.94552993774414 91.31310272216797 53.9490966796875 90.65608215332031 53.23311996459961 C 89.87123870849609 52.37928009033203 89.09001159667969 51.31832504272461 88.26291656494141 50.19505310058594 C 87.51917266845703 49.18495941162109 86.75009918212891 48.14048385620117 85.88533020019531 47.11100769042969 C 81.39107513427734 41.75966644287109 76.77073669433594 34.91955184936523 74.3883056640625 30.09041595458984 C 71.06915283203125 23.3661937713623 66.58998107910156 8.958493232727051 64.78411102294922 2.959358215332031 C 62.18927764892578 9.065356254577637 55.64421844482422 24.23728370666504 52.20205688476562 30.15086936950684 C 46.31682968139648 40.26164245605469 40.70610046386719 48.43023300170898 35.04937362670898 55.1232795715332 C 33.44498825073242 57.02214431762695 31.96978378295898 59.06466674804688 30.66469192504883 61.19411849975586 L 30.60846519470215 61.28584671020508 L 30.53403282165527 61.36350631713867 C 26.37398719787598 65.70402526855469 22.50826072692871 70.66396331787109 19.0443058013916 76.10550689697266 C 17.76387405395508 78.11698150634766 16.4785327911377 80.08786773681641 15.23550987243652 81.99385070800781 C 7.596919536590576 93.70648193359375 1.000010371208191 103.8218688964844 1.000010371208191 114.7437133789062 C 1.000010371208191 121.5078887939453 2.551487684249878 128.0711212158203 5.611328601837158 134.2510528564453 C 7.084124088287354 137.2256622314453 8.907760620117188 140.0955505371094 11.03151035308838 142.781005859375 C 13.13773727416992 145.4442596435547 15.55739688873291 147.9493408203125 18.2232608795166 150.2267150878906 C 23.64173698425293 154.8554840087891 29.95421409606934 158.4906158447266 36.9853515625 161.0311431884766 C 44.27321624755859 163.6644134521484 52.01655578613281 164.9996032714844 60.00030517578125 164.9996032714844 M 60.00030517578125 165.9996032714844 C 26.86319160461426 165.9996032714844 1.031771535053849e-05 143.0514221191406 1.031771535053849e-05 114.7437133789062 C 1.031771535053849e-05 101.7027130126953 9.056692123413086 89.93339538574219 18.20071411132812 75.56850433349609 C 21.54071426391602 70.32170867919922 25.45846557617188 65.21405029296875 29.81207847595215 60.67157363891602 C 31.07857894897461 58.60507583618164 32.55810165405273 56.52236938476562 34.2855110168457 54.4778938293457 C 38.54969024658203 49.4325065612793 44.18910217285156 41.9292106628418 51.33780670166016 29.64780235290527 C 55.61730575561523 22.29571151733398 64.94850921630859 6.181196567922598e-06 64.94850921630859 6.181196567922598e-06 C 64.94850921630859 6.181196567922598e-06 71.11439514160156 21.1985969543457 75.28501129150391 29.64780235290527 C 77.75460052490234 34.65359878540039 82.46519470214844 41.48371124267578 86.65110015869141 46.46789169311523 C 88.51769256591797 48.69000625610352 89.96939849853516 51.00839233398438 91.39230346679688 52.55639266967773 C 92.18339538574219 53.41680145263672 97.17930603027344 61.91550445556641 97.72739410400391 62.87939071655273 C 98.34571838378906 63.96750640869141 110.0286026000977 77.85989379882812 110.3067169189453 78.75720977783203 C 110.9677581787109 79.60755157470703 111.3239898681641 80.34304809570312 111.5204162597656 81.07627868652344 C 117.8475341796875 91.50902557373047 119.9997177124023 104.9471893310547 119.9997177124023 114.7437133789062 C 119.9997177124023 143.0514221191406 93.13739776611328 165.9996032714844 60.00030517578125 165.9996032714844 Z" stroke="none" fill="#fff"/>
    </g>
    <g transform="matrix(1, 0, 0, 1, 0, 0)" filter="url(#水力)">
      <text id="水力-2" data-name="水力" transform="translate(24 79)" fill="#5a5a5d" font-size="21" font-family="HiraginoSans-W6, Hiragino Sans"><tspan x="15.5" y="18">水力</tspan></text>
    </g>
  </g>
  <g id="Group-2" data-name="Group" transform="translate(220 69)">
    <g id="Combined_Shape-2" data-name="Combined Shape" transform="translate(15)" stroke-miterlimit="10" fill="url(#linear-gradient)">
      <path d="M 31.5 87.50019836425781 C 27.30615615844727 87.50019836425781 23.23853302001953 86.79196929931641 19.4101448059082 85.39517974853516 C 15.71616649627686 84.04743194580078 12.39964485168457 82.11888885498047 9.552711486816406 79.66312408447266 C 6.71114444732666 77.21197509765625 4.481044292449951 74.35942077636719 2.924355506896973 71.18468475341797 C 1.315666675567627 67.90390777587891 0.5 64.41950988769531 0.5 60.82830047607422 C 0.5 55.02828979492188 3.965344429016113 49.66254425048828 7.977866649627686 43.44953155517578 C 8.630722045898438 42.43864440917969 9.305810928344727 41.39334487915039 9.978278160095215 40.32652282714844 C 11.79816627502441 37.43986511230469 13.82936668395996 34.80855560302734 16.01543426513672 32.50573348999023 L 16.05237770080566 32.46681213378906 L 16.08022308349609 32.42093276977539 C 16.76571083068848 31.2916316986084 17.54063415527344 30.20827674865723 18.38347816467285 29.20095443725586 C 21.35287857055664 25.6524772644043 24.29746627807617 21.32341003417969 27.38547706604004 15.96641063690186 C 29.20397186279297 12.8129940032959 32.6723747253418 4.687152862548828 34.01595306396484 1.492996454238892 C 34.95061874389648 4.631528377532959 37.32211303710938 12.34866428375244 39.07516479492188 15.9362211227417 C 40.32657623291016 18.49723243713379 42.7509765625 22.1210880279541 45.10795593261719 24.95371055603027 C 45.56211090087891 25.49969863891602 45.96604537963867 26.05373191833496 46.3566780090332 26.58952140808105 C 46.79039001464844 27.18438720703125 47.20005416870117 27.74627685546875 47.61101150512695 28.19783210754395 C 47.95449066162109 28.57403182983398 50.42710113525391 32.79116439819336 50.87176513671875 33.57905578613281 C 51.0179557800293 33.838623046875 51.83528900146484 34.85854339599609 53.66537857055664 37.12380981445312 C 55.16567230224609 38.98087310791016 57.21345138549805 41.51558303833008 57.44231414794922 41.92680358886719 L 57.45987701416016 41.98415374755859 L 57.51523208618164 42.05604553222656 C 57.79666519165039 42.42155456542969 57.97122192382812 42.75554275512695 58.06456756591797 43.10713195800781 L 58.08273315429688 43.17557525634766 L 58.11920166015625 43.23628997802734 C 59.62274551391602 45.73941040039062 60.77092361450195 48.73480987548828 61.53185653686523 52.13928985595703 C 62.33203506469727 55.71939849853516 62.5 58.8404655456543 62.5 60.82830047607422 C 62.5 64.41950988769531 61.68433380126953 67.90390777587891 60.07564544677734 71.18468475341797 C 58.51895523071289 74.35942077636719 56.28885650634766 77.21197509765625 53.44728851318359 79.66312408447266 C 50.60035705566406 82.11888885498047 47.28383255004883 84.04743194580078 43.5898551940918 85.39517974853516 C 39.76146697998047 86.79196929931641 35.69384384155273 87.50019836425781 31.5 87.50019836425781 Z" stroke="none"/>
      <path d="M 31.5 87.00020599365234 C 35.63521194458008 87.00020599365234 39.64517211914062 86.30216217041016 43.41847991943359 84.92547607421875 C 47.05542755126953 83.59854125976562 50.31973266601562 81.70064544677734 53.12070846557617 79.28451538085938 C 55.91093444824219 76.87766265869141 58.0998649597168 74.07842254638672 59.62670516967773 70.96456909179688 C 61.20150756835938 67.75288391113281 62 64.34255218505859 62 60.82830047607422 C 62 58.86564636230469 61.83412170410156 55.7839241027832 61.04389190673828 52.24834060668945 C 60.29468154907227 48.89629745483398 59.16646575927734 45.95082092285156 57.69058609008789 43.49375152587891 L 57.61765289306641 43.37233734130859 L 57.58130645751953 43.23544692993164 C 57.50452041625977 42.94620513916016 57.36196136474609 42.67654037475586 57.11906814575195 42.361083984375 L 57.00836181640625 42.21731185913086 L 56.98324203491211 42.13530349731445 C 56.63980102539062 41.60115814208984 54.62447738647461 39.10661697387695 53.27641296386719 37.43799209594727 C 51.21686553955078 34.88871383666992 50.59417343139648 34.10507202148438 50.43632125854492 33.82480621337891 C 49.93903350830078 32.94366836547852 47.60763549804688 28.98068046569824 47.23637390136719 28.52904319763184 C 46.80887603759766 28.05844116210938 46.39291381835938 27.48793792724609 45.95266723632812 26.88408660888672 C 45.56665420532227 26.35463333129883 45.16750717163086 25.80716514587402 44.72361373901367 25.27351188659668 C 42.3436279296875 22.41325950622559 39.89316177368164 18.74909973144531 38.62593460083008 16.15573883056641 C 37.07135009765625 12.97435092926025 35.04220581054688 6.599761486053467 33.93678283691406 2.964536666870117 C 32.35567855834961 6.687892436981201 29.44097137451172 13.40290451049805 27.81866645812988 16.21611213684082 C 24.71599960327148 21.59853935241699 21.75514602661133 25.95088577270508 18.76694679260254 29.52182006835938 C 17.94026756286621 30.50980567932129 17.18013381958008 31.57251167297363 16.50764083862305 32.68037796020508 L 16.45194625854492 32.77212524414062 L 16.37805366516113 32.8499641418457 C 14.21455955505371 35.12902069091797 12.20366668701172 37.73421859741211 10.40126705169678 40.5931510925293 C 9.727333068847656 41.66230010986328 9.051480293273926 42.70877838134766 8.397879600524902 43.72081756591797 C 4.428279876708984 49.86736679077148 1 55.17571258544922 1 60.82830047607422 C 1 64.34255218505859 1.798493385314941 67.75288391113281 3.373293399810791 70.96456909179688 C 4.90013313293457 74.07842254638672 7.089066505432129 76.87766265869141 9.879293441772461 79.28451538085938 C 12.68026638031006 81.70064544677734 15.94457340240479 83.59854125976562 19.58152008056641 84.92547607421875 C 23.35482597351074 86.30216217041016 27.36478614807129 87.00020599365234 31.5 87.00020599365234 M 31.5 88.00020599365234 C 14.10299968719482 88.00020599365234 0 75.83489990234375 0 60.82830047607422 C 0 53.91449737548828 4.754706859588623 47.67569732666016 9.555306434631348 40.05989837646484 C 11.30908012390137 37.27811431884766 13.36658668518066 34.56982040405273 15.65279960632324 32.1614875793457 C 16.3174934387207 31.06645965576172 17.09354591369629 29.96344566345215 18 28.88009834289551 C 20.23830604553223 26.20529937744141 23.19930648803711 22.22729873657227 26.95230674743652 15.71669960021973 C 29.19960021972656 11.81969928741455 34.09830856323242 5.84879535381333e-06 34.09830856323242 5.84879535381333e-06 C 34.09830856323242 5.84879535381333e-06 37.33560180664062 11.23740577697754 39.52439880371094 15.71669960021973 C 40.82130813598633 18.37080574035645 43.29359817504883 21.99149894714355 45.49230575561523 24.6338996887207 C 46.47150802612305 25.81110000610352 47.23379898071289 27.04049873352051 47.98080062866211 27.86129951477051 C 48.39659881591797 28.31669998168945 51.01919937133789 32.82300567626953 51.30720138549805 33.33329772949219 C 51.63210678100586 33.91020584106445 57.76559829711914 41.27489852905273 57.91139984130859 41.75100708007812 C 58.25788116455078 42.20099258422852 58.44473266601562 42.59053802490234 58.54782485961914 42.97883224487305 C 61.8702278137207 48.51001739501953 63 55.63484573364258 63 60.82830047607422 C 63 75.83489990234375 48.89699935913086 88.00020599365234 31.5 88.00020599365234 Z" stroke="none" fill="#fff"/>
    </g>
    <g transform="matrix(1, 0, 0, 1, -220, -69)" filter="url(#マイクロ)">
      <text id="マイクロ-2" data-name="マイクロ" transform="translate(220 108)" fill="#5a5a5d" font-size="14" font-family="HiraginoSans-W6, Hiragino Sans"><tspan x="19.48" y="12">マイクロ</tspan></text>
    </g>
  </g>
  <g id="Oval" transform="translate(96 113)" fill="none" stroke="#505053" stroke-miterlimit="10" stroke-width="1">
    <circle cx="4.5" cy="4.5" r="4.5" stroke="none"/>
    <circle cx="4.5" cy="4.5" r="4" fill="none"/>
  </g>
  <path id="Path_2" data-name="Path 2" d="M0,30.78,131.75.86" transform="translate(100.75 82.64)" fill="none" stroke="#979797" stroke-miterlimit="10" stroke-width="1" stroke-dasharray="2"/>
  <path id="Path_3" data-name="Path 3" d="M0,0,131.75,31.75" transform="translate(100.75 121.75)" fill="none" stroke="#979797" stroke-miterlimit="10" stroke-width="1" stroke-dasharray="2"/>
</svg>
