<svg height="166" viewBox="0 0 321 166" width="321" xmlns="http://www.w3.org/2000/svg" xmlns:xlink="http://www.w3.org/1999/xlink"><linearGradient id="a" gradientUnits="objectBoundingBox" x1=".5" x2=".5" y1="1" y2=".542"><stop offset="0" stop-color="#eee"/><stop offset="0" stop-color="#48c0f4"/><stop offset="1" stop-color="#eefbfd"/></linearGradient><filter id="b" filterUnits="userSpaceOnUse" height="82" width="85" x="20" y="75"><feOffset dx="2" dy="2"/><feGaussianBlur result="blur" stdDeviation="2"/><feFlood flood-opacity=".502"/><feComposite in2="blur" operator="in"/><feComposite in="SourceGraphic"/></filter><filter id="c" filterUnits="userSpaceOnUse" height="49" width="105" x="216" y="104"><feOffset dx="2" dy="2"/><feGaussianBlur result="blur-2" stdDeviation="2"/><feFlood flood-opacity=".502"/><feComposite in2="blur-2" operator="in"/><feComposite in="SourceGraphic"/></filter><g fill="url(#a)" stroke-miterlimit="10"><path d="m60.00030899 165.49961853c-8.04185486 0-15.84235382-1.34518433-23.1848526-3.99821472-7.08795929-2.56106568-13.45254326-6.22650147-18.91695976-10.89451599-2.69049931-2.29840088-5.13283253-4.82707215-7.25916577-7.51573181-2.14539623-2.71279908-3.98781299-5.61239624-5.47610473-8.61827088-3.09429145-6.24949646-4.66322908-12.88735199-4.66322908-19.72918701 0-11.07041931 6.63450012-21.24341583 14.31658372-33.02277374 1.24231243-1.90491486 2.52693653-3.8746872 3.80591679-5.88391114 3.48160362-5.46923065 7.36777115-10.45523071 11.5505619-14.81946182l.03722954-.03885269.02810478-.04585648c1.31826973-2.15095901 2.80839348-4.21414566 4.42902184-6.13224792 5.63772583-6.67052078 11.23201752-14.81581497 17.10251999-24.90127182 3.65067673-6.27178192 11.03516769-23.54764795 13.09580993-28.41614115 1.4335785 4.80633747 6.43780518 21.22819483 9.97089386 28.38593256 2.36646271 4.79674912 6.96047974 11.59654236 11.43158722 16.92035294.87503815 1.0417099 1.6489563 2.09275055 2.39737702 3.10918808.81877136 1.11198044 1.59216308 2.16231155 2.35860443 2.99612427.71836853.78129196 5.61118317 9.07571029 6.26853943 10.23177337.27572632.48522949 2.18910217 2.83812332 5.28812408 6.63693619 2.93917847 3.60286713 6.96035004 8.5320816 7.25269318 9.15605926l.02251434.0726471.05587769.07187653c.57439422.73887634.93202209 1.41937255 1.12548065 2.1415863l.0184555.06891632.03700257.06097412c2.88801574 4.76204681 5.09247589 10.45579529 6.55210113 16.92311096 1.5329361 6.79207611 1.85470581 12.71356201 1.85470581 16.48503876 0 6.84183502-1.56889343 13.47970581-4.6630783 19.72920227-1.48825074 3.00587463-3.33062745 5.90548706-5.47595978 8.61825562-2.12627411 2.68865966-4.56856537 5.21733093-7.25900269 7.51573181-5.4642868 4.66801452-11.82876587 8.33348083-18.91664123 10.89451599-7.3423996 2.65303039-15.14287567 3.99821472-23.18471146 3.99821472z"/><path d="m60.00030518 164.99960327c7.9837265 0 15.72702026-1.33518982 23.01479339-3.96846008 7.03105164-2.54049683 13.3434372-6.17564392 18.76177216-10.8044281 2.66582489-2.27734375 5.08543396-4.78244019 7.19161987-7.44570923 2.123703-2.68542481 3.94727325-5.55531311 5.42004395-8.529953 3.05974578-6.17991639 4.61118316-12.74314118 4.61118316-19.50733948 0-3.74607086-.31964111-9.62782288-1.84246063-16.37497711-1.44772339-6.41455078-3.6319046-12.05809021-6.49188232-16.77391053l-.07397461-.12197876-.03691101-.13779449c-.1756363-.65561676-.50524903-1.27970886-1.03727723-1.96408844l-.11177063-.14377594-.0345993-.1116333c-.45584106-.79664612-4.49329376-5.74581909-7.17744446-9.03607178-3.49375152-4.28266144-5.05427551-6.2112503-5.33529663-6.70579529-.81208801-1.4281578-5.54499817-9.42459106-6.20201874-10.14056778-.78484344-.85383987-1.56607055-1.91479492-2.39316559-3.03806686-.74374389-1.01009369-1.51281738-2.05456924-2.37758636-3.08404541-4.49425507-5.35134125-9.11459351-12.19145584-11.49702454-17.02059174-3.31915283-6.72422218-7.79832458-21.13192272-9.60419464-27.13105773-2.59483337 6.10599803-9.13989258 21.27792549-12.58205414 27.19151115-5.8852272 10.11077309-11.49595642 18.27936363-17.15268325 24.9724102-1.60438538 1.89886475-3.07958985 3.94138718-4.3846817 6.07083893l-.05622674.09172821-.07443237.07765961c-4.16004562 4.34051895-8.02577209 9.300457-11.48972702 14.74200058-1.28043175 2.01147461-2.56577301 3.98236084-3.80879593 5.88834381-7.63859033 11.71263122-14.2354995 21.82801819-14.2354995 32.74986267 0 6.76417541 1.55147731 13.32740784 4.61131823 19.50733948 1.47279549 2.97460937 3.29643202 5.84449768 5.42018175 8.529953 2.10622692 2.66325378 4.52588654 5.16833496 7.19175053 7.44570923 5.4184761 4.62876892 11.73095322 8.26390075 18.76209068 10.8044281 7.28786469 2.63327026 15.03120423 3.96846008 23.01495362 3.96846008m0 1c-33.13711358 0-60.00029486-22.94818115-60.00029486-51.25588989 0-13.04100037 9.0566818-24.81031799 18.20070379-39.17520905 3.34000015-5.24679565 7.25775147-10.35445404 11.61136437-14.89693069 1.26650047-2.0664978 2.74602317-4.14920426 4.47343254-6.19367981 4.26417923-5.04538727 9.90359115-12.54868317 17.05229568-24.83009148 4.27949906-7.35209083 13.61070252-29.64779617 13.61070252-29.64779617s6.16588592 21.19859077 10.33650207 29.64779617c2.46958923 5.00579644 7.18018341 11.83590889 11.36608887 16.82008934 1.86659241 2.22211457 3.31829834 4.54050064 4.74120331 6.08850098.79109192.86040878 5.78700256 9.35911179 6.33509063 10.32299805.61832428 1.08811569 12.3012085 14.98050308 12.57932282 15.87781906.66104126.85034179 1.01727295 1.58583832 1.21369934 2.31906891 6.32711792 10.43274688 8.47930145 23.87091064 8.47930145 33.66743469 0 28.30770874-26.86231994 51.25588989-59.99941253 51.25588989z" fill="#fff"/></g><g filter="url(#b)"><text fill="#5a5a5d" font-family="HiraginoSans-W6, Hiragino Sans" font-size="21" transform="translate(24 79)"><tspan x="15.5" y="18">水力</tspan></text></g><g fill="url(#a)" stroke-miterlimit="10" transform="translate(235 69)"><path d="m31.5 87.50019836c-4.19384384 0-8.26146698-.70822906-12.08985519-2.10501861-3.69397831-1.3477478-7.01049996-3.2762909-9.85743332-5.73205567-2.84156704-2.45114898-5.0716672-5.3037033-6.62835598-8.47843933-1.60868883-3.28077697-2.42435551-6.76517486-2.42435551-10.35638427 0-5.80001069 3.46534443-11.16575623 7.47786665-17.37876892.6528554-1.01088715 1.32794428-2.05618668 2.00041151-3.12300873 1.81988812-2.88665772 3.85108852-5.51796723 6.03715611-7.82078934l.03694343-.03892136.02784538-.04587936c.68548775-1.12930107 1.46041108-2.21265602 2.30325508-3.21997833 2.96940041-3.54847718 5.91398812-7.87754441 9.00199891-13.2345438 1.81849479-3.15341664 5.28689766-11.27925778 6.63047599-14.47341419.93466568 3.13853193 3.30615998 10.85566783 5.05921173 14.44322467 1.25141144 2.56101132 3.67581177 6.18486691 6.03279114 9.01748944.45415497.54598808.85808945 1.10002136 1.24872208 1.63581085.433712.5948658.84337616 1.15675545 1.2543335 1.6083107.34347915.37619972 2.81608963 4.59333229 3.26075363 5.38122368.14619064.25956726.96352386 1.27948761 2.79361343 3.54475402 1.50029373 1.8570633 3.54807282 4.39177323 3.77693558 4.80299378l.01756286.05735016.05535508.07189178c.2814331.36550904.45598983.69949723.54933548 1.05108643l.01816558.0684433.03646851.06071472c1.50354385 2.50312042 2.65172195 5.4985199 3.41265488 8.90299988.80017852 3.58010864.96814346 6.70117569.96814346 8.68901062 0 3.59120941-.8156662 7.0756073-2.42435455 10.35638427-1.55669022 3.17473603-3.78678894 6.02729035-6.62835694 8.47843933-2.84693145 2.45576477-6.16345596 4.38430787-9.85743332 5.73205567-3.82838821 1.39678955-7.89601135 2.10501861-12.08985519 2.10501861z"/><path d="m31.5 87.00020599c4.13521194 0 8.14517212-.69804382 11.91847992-2.07472992 3.63694763-1.32693481 6.90125275-3.22483062 9.70222855-5.64096069 2.79022598-2.40685272 4.97915649-5.20609283 6.5059967-8.31994629 1.5748024-3.21168518 2.37329483-6.6220169 2.37329483-10.13626861 0-1.96265412-.1658783-5.04437638-.95610809-8.57995987-.74921036-3.35204316-1.87742615-6.29751969-3.35330582-8.75458908l-.0729332-.12141419-.03634643-.13689041c-.07678604-.28924179-.2193451-.55890656-.46223831-.87436295l-.11070633-.14377212-.02511979-.08200836c-.343441-.53414536-2.35876464-3.02868653-3.70682907-4.6973114-2.05954742-2.54927826-2.68223953-3.33292008-2.8400917-3.61318589-.49728775-.88113784-2.82868576-4.84412574-3.19994736-5.29576301-.42749786-.47060204-.84346008-1.04110527-1.28370666-1.64495659-.38601303-.52945328-.78516007-1.07692146-1.2290535-1.61057472-2.37998581-2.86025238-4.83045197-6.52441216-6.09767914-9.11777306-1.5545845-3.1813879-3.58372879-9.55597734-4.68915176-13.19120216-1.58110428 3.72335577-4.49581147 10.43836784-6.11811638 13.25157547-3.10266686 5.38242721-6.06352043 9.73477363-9.05171967 13.30570793-.82667923.98798561-1.58681297 2.0506916-2.25930595 3.15855789l-.05569458.09174728-.07389259.0778389c-2.16349411 2.27905655-4.17438698 4.88425446-5.97678662 7.74318695-.67393398 1.06914902-1.34978676 2.11562729-2.00338745 3.12766648-3.96959972 6.14654922-7.3978796 11.45489502-7.3978796 17.10748291 0 3.51425171.79849339 6.92458343 2.3732934 10.13626861 1.52683973 3.11385346 3.71577311 5.91309357 6.50600004 8.31994629 2.80097294 2.41613007 6.06527996 4.31402588 9.70222664 5.64096069 3.77330589 1.3766861 7.78326607 2.07472992 11.91847992 2.07472992m0 1c-17.39700031 0-31.5-12.16530609-31.5-27.17190551 0-6.9138031 4.75470686-13.15260315 9.55530643-20.7684021 1.75377369-2.78178406 3.81128026-5.49007798 6.09749318-7.8984108.66469383-1.09502792 1.4407463-2.19804192 2.34720039-3.28138924 2.23830605-2.67479896 5.19930649-6.6527996 8.95230675-13.16339874 2.24729347-3.89700031 7.14600181-15.71669375 7.14600181-15.71669375s3.23729325 11.23739993 5.42609024 15.71669375c1.29690934 2.65410614 3.76919938 6.27479935 5.96790696 8.91720009.97920227 1.17720032 1.74149322 2.40659904 2.48849487 3.22739982.41579819.45540047 3.03839874 4.96170617 3.32640076 5.47199822.32490539.57690811 6.45839691 7.9416008 6.60419845 8.41770935.34648132.4499855.53333283.83953094.63642502 1.22782516 3.32240295 5.53118516 4.45217514 12.65601349 4.45217514 17.84946824 0 15.00659942-14.10300064 27.17190551-31.5 27.17190551z" fill="#fff"/></g><g filter="url(#c)"><text fill="#5a5a5d" font-family="HiraginoSans-W6, Hiragino Sans" font-size="14" transform="translate(220 108)"><tspan x="19.48" y="12">マイクロ</tspan></text></g><g fill="none" stroke-miterlimit="10"><g stroke="#505053"><circle cx="100.5" cy="117.5" r="4.5" stroke="none"/><circle cx="100.5" cy="117.5" fill="none" r="4"/></g><path d="m0 30.78 131.75-29.92" stroke="#979797" stroke-dasharray="2" transform="translate(100.75 82.64)"/><path d="m0 0 131.75 31.75" stroke="#979797" stroke-dasharray="2" transform="translate(100.75 121.75)"/></g></svg>