<svg xmlns="http://www.w3.org/2000/svg" width="69.772" height="153.429" viewBox="0 0 69.772 153.429">
  <g id="グループ_60" data-name="グループ 60" transform="translate(-313.271 -115.851)">
    <path id="パス_356" data-name="パス 356" d="M359.843,264.34" stroke="#2f7428" stroke-miterlimit="10" stroke-width="1"/>
    <path id="パス_357" data-name="パス 357" d="M359.843,264.34" stroke="#2f7428" stroke-miterlimit="10" stroke-width="1"/>
    <path id="パス_358" data-name="パス 358" d="M366.624,153.084a9.74,9.74,0,1,1-9.74-9.739A9.74,9.74,0,0,1,366.624,153.084Z"/>
    <path id="パス_359" data-name="パス 359" d="M331.738,148.549a3.625,3.625,0,1,0,4.272,2.834A3.625,3.625,0,0,0,331.738,148.549Zm5.924-28.91c-4.775-4.9-13.507-5-19.069-.563-6.058,4.837-5.528,13.02-1.7,13.436s4.187-2.5,4.146-4.61c-.049-2.476,1.292-4.65,5.129-5.427,4.206-.85,6.588,1.386,7.315,4.98.6,2.949-2.631,6.822-4.814,9.9-2.025,2.854-1.051,5.313-.621,7.436a2.747,2.747,0,0,0,3.42,2.2,2.532,2.532,0,0,0,1.864-3.128c-.347-1.715-1.806-3.31,2.407-6.849C340.57,132.948,343.132,125.248,337.662,119.639Z"/>
    <g id="グループ_59" data-name="グループ 59">
      <rect id="長方形_5" data-name="長方形 5" width="4.401" height="2.2" transform="translate(347.292 166.533)"/>
      <path id="パス_360" data-name="パス 360" d="M349.494,177.973l2.2-2.822V169.7h-4.4v5.455Z"/>
      <path id="パス_361" data-name="パス 361" d="M382.056,164.768l-7.365-16.89a3.791,3.791,0,0,0-7.086,2.7l4.525,13.746-4.828.782a39.723,39.723,0,0,1-6.73.634l-11.078,14.215L339.2,166.748c-6.019.963-10.775,3.055-14.168,6.743l-10.866,12.177a4.654,4.654,0,0,0-.234,5.136l10.211,15.337a3.791,3.791,0,0,0,6.5-3.9l-4.59-12.059,4.95-3.961c.662,21.833,5.147,78.117,5.147,78.117a4.941,4.941,0,0,0,9.883,0l1.12-25.474L348,219.773l.841,19.093,1.119,25.474a4.941,4.941,0,0,0,9.883,0s4.658-42.143,5.705-53.807,2.641-32.779,2.641-32.779l13.309-6.381C384.138,170.053,382.744,166.568,382.056,164.768Zm-32.562,29.4a1.237,1.237,0,1,1,1.236-1.237A1.238,1.238,0,0,1,349.494,194.17Zm0-6.682a1.238,1.238,0,1,1,1.236-1.238A1.238,1.238,0,0,1,349.494,187.488Z"/>
    </g>
  </g>
</svg>
