<svg height="153.429" viewBox="0 0 69.772 153.429" width="69.772" xmlns="http://www.w3.org/2000/svg"><g transform="translate(-313.271 -115.851)"><path d="m366.624 153.084a9.74 9.74 0 1 1 -9.74-9.739 9.74 9.74 0 0 1 9.74 9.739z"/><path d="m331.738 148.549a3.625 3.625 0 1 0 4.272 2.834 3.625 3.625 0 0 0 -4.272-2.834zm5.924-28.91c-4.775-4.9-13.507-5-19.069-.563-6.058 4.837-5.528 13.02-1.7 13.436s4.187-2.5 4.146-4.61c-.049-2.476 1.292-4.65 5.129-5.427 4.206-.85 6.588 1.386 7.315 4.98.6 2.949-2.631 6.822-4.814 9.9-2.025 2.854-1.051 5.313-.621 7.436a2.747 2.747 0 0 0 3.42 2.2 2.532 2.532 0 0 0 1.864-3.128c-.347-1.715-1.806-3.31 2.407-6.849 4.831-4.066 7.393-11.766 1.923-17.375z"/><path d="m347.292 166.533h4.401v2.2h-4.401z"/><path d="m349.494 177.973 2.2-2.822v-5.451h-4.4v5.455z"/><path d="m382.056 164.768-7.365-16.89a3.791 3.791 0 0 0 -7.086 2.7l4.525 13.746-4.828.782a39.723 39.723 0 0 1 -6.73.634l-11.078 14.215-10.294-13.207c-6.019.963-10.775 3.055-14.168 6.743l-10.866 12.177a4.654 4.654 0 0 0 -.234 5.136l10.211 15.337a3.791 3.791 0 0 0 6.5-3.9l-4.59-12.059 4.95-3.961c.662 21.833 5.147 78.117 5.147 78.117a4.941 4.941 0 0 0 9.883 0l1.12-25.474.847-19.091.841 19.093 1.119 25.474a4.941 4.941 0 0 0 9.883 0s4.658-42.143 5.705-53.807 2.641-32.779 2.641-32.779l13.309-6.381c2.64-1.32 1.246-4.805.558-6.605zm-32.562 29.4a1.237 1.237 0 1 1 1.236-1.237 1.238 1.238 0 0 1 -1.236 1.239zm0-6.682a1.238 1.238 0 1 1 1.236-1.238 1.238 1.238 0 0 1 -1.236 1.24z"/></g></svg>